<?xml version="1.0"?>
<svg xmlns="http://www.w3.org/2000/svg" xmlns:xlink="http://www.w3.org/1999/xlink" xmlns:svgjs="http://svgjs.com/svgjs" version="1.1" width="512" height="512" x="0" y="0" viewBox="0 0 497.907 497.907" style="enable-background:new 0 0 512 512" xml:space="preserve" class=""><g><g xmlns="http://www.w3.org/2000/svg"><path d="m316.787 73.243-139.494.916-53.364 26.079c-16.187 24.071-25.645 53.043-25.645 84.232 0 54.58 28.93 102.41 72.3 128.98l50.85 26.96h63.44l43.45-26.96c43.37-26.57 72.3-74.4 72.3-128.98 0-31.19-9.458-60.162-25.645-84.232z" fill="#fffdf2" data-original="#c8effe" style="" class=""/><g><circle cx="348.655" cy="228.364" fill="#babece" r="38.905" data-original="#9cf8d2" style="" class=""/><circle cx="301.731" cy="278.504" fill="#988daf" r="38.905" data-original="#fdb441" style="" class=""/><circle cx="281.367" cy="207.047" fill="#988daf" r="38.905" data-original="#fdb441" style="" class=""/><circle cx="211.621" cy="208.281" fill="#7b989f" r="38.905" data-original="#f37c7c" style="" class=""/><path d="m158.58 184.47c0-38.062 14.082-72.822 37.301-99.396l-30.86-2.218-41.093 17.382c-16.187 24.071-25.645 53.042-25.645 84.232 0 54.58 28.93 102.41 72.3 128.98l50.85 26.96h60.297l-50.85-26.96c-43.37-26.57-72.3-74.4-72.3-128.98z" fill="#fff9d2" data-original="#99e6fc" style="" class=""/><g id="XMLID_661_"><g><path d="m306.934 44.62c27.82 11.45 51.48 30.95 68.05 55.62h-251.06c16.57-24.67 40.23-44.17 68.05-55.62l37.41-14.06h45.48z" fill="#fffade" data-original="#dff6fd" style="" class=""/></g></g></g><circle cx="148.286" cy="230.486" fill="#babece" r="38.905" data-original="#9cf8d2" style="" class=""/><path d="m176.974 256.759c-10.432-19.117-16.852-40.73-18.137-63.718-3.357-.944-6.893-1.46-10.551-1.46-21.487 0-38.905 17.418-38.905 38.905s17.418 38.905 38.905 38.905c11.357-.001 21.576-4.87 28.688-12.632z" fill="#797f99" data-original="#41f9a5" style="" class=""/><circle cx="221.481" cy="254.392" fill="#babece" r="38.905" data-original="#9cf8d2" style="" class=""/><circle cx="277.882" cy="254.392" fill="#ffe3c7" r="38.905" data-original="#fee45a" style="" class=""/><circle cx="194.249" cy="281.226" fill="#ffe3c7" r="38.905" data-original="#fee45a" style="" class=""/><path d="m222.523 307.934c-21.258-15.042-38.446-35.44-49.63-59.222-10.568 6.956-17.549 18.917-17.549 32.514 0 21.486 17.418 38.905 38.905 38.905 11.142-.001 21.182-4.692 28.274-12.197z" fill="#dab38b" data-original="#fedf30" style="" class=""/><circle cx="248.953" cy="296.449" fill="#7b989f" r="38.905" data-original="#f37c7c" style="" class=""/><path d="m230.88 313.45c-7.375-4.518-14.321-9.665-20.79-15.342.87 20.716 17.933 37.245 38.863 37.245 5.862 0 11.416-1.304 16.401-3.626z" fill="#587d88" data-original="#ee6161" style="" class=""/><path d="m355.451 325.316c-1.634-6.953-7.837-11.867-14.979-11.867h-185.404c-7.142 0-13.345 4.914-14.979 11.867l-32.892 139.967-4.934 23.118h286.079v-23.118z" fill="#e2e5ea" data-original="#efedef" style="" class=""/><path d="m307.518 437.764h-116.129c-4.495 0-8.14-3.644-8.14-8.14v-32.119c0-4.495 3.644-8.139 8.14-8.139h116.129c4.495 0 8.139 3.644 8.139 8.139v32.119c0 4.495-3.644 8.14-8.139 8.14z" fill="#babece" data-original="#e5e1e5" style="" class=""/><path d="m383.643 445.282h-183.817c-17.8 0-30.948-16.596-26.876-33.924l20.22-86.042c1.634-6.953 7.837-11.867 14.979-11.867h-53.081c-7.142 0-13.345 4.914-14.978 11.867l-28.192 119.967-4.7 20-4.934 23.118h53.081 232.998v-23.118z" fill="#babece" data-original="#e5e1e5" style="" class=""/><g><path d="m164.33 347.907c-4.143 0-7.5-3.357-7.5-7.5v-3.233c0-4.143 3.357-7.5 7.5-7.5s7.5 3.357 7.5 7.5v3.233c0 4.143-3.357 7.5-7.5 7.5z" fill="#797f99" data-original="#d7d0d6" style="" class=""/></g><g><path d="m141.265 447.497c-4.143 0-7.5-3.357-7.5-7.5v-3.233c0-4.143 3.357-7.5 7.5-7.5s7.5 3.357 7.5 7.5v3.233c0 4.143-3.357 7.5-7.5 7.5z" fill="#797f99" data-original="#d7d0d6" style="" class=""/></g><g><path d="m357.642 447.497c-4.143 0-7.5-3.357-7.5-7.5v-3.233c0-4.143 3.357-7.5 7.5-7.5s7.5 3.357 7.5 7.5v3.233c0 4.143-3.357 7.5-7.5 7.5z" fill="#797f99" data-original="#d7d0d6" style="" class=""/></g><g><path d="m334.577 347.907c-4.143 0-7.5-3.357-7.5-7.5v-3.233c0-4.143 3.357-7.5 7.5-7.5s7.5 3.357 7.5 7.5v3.233c0 4.143-3.358 7.5-7.5 7.5z" fill="#797f99" data-original="#d7d0d6" style="" class=""/></g><path d="m403.673 465.283h-309.439c-5.548 0-10.045 4.497-10.045 10.045v20.187c0 1.321 1.071 2.393 2.393 2.393h324.742c1.321 0 2.393-1.071 2.393-2.393v-20.187c0-5.548-4.497-10.045-10.044-10.045z" fill="#9ea2b2" data-original="#d1a08f" style="" class=""/><g><path d="m313.658 367.699h-129.052c-4.143 0-7.5-3.357-7.5-7.5s3.357-7.5 7.5-7.5h129.052c4.143 0 7.5 3.357 7.5 7.5s-3.358 7.5-7.5 7.5z" fill="#797f99" data-original="#d7d0d6" style="" class=""/></g><path d="m252.27 44.62 29.432-11.062-6.839-2.998h-2.847-42.633l-37.41 14.06c-27.82 11.45-51.48 30.95-68.05 55.62h60.3c16.582-24.659 40.225-44.173 68.047-55.62z" fill="#fffdf2" data-original="#c8effe" style="" class=""/><path d="m304.128 44.621h-110.022c-9.473 0-17.153-7.68-17.153-17.153v-10.315c0-9.473 7.68-17.153 17.153-17.153h110.022c9.473 0 17.153 7.68 17.153 17.153v10.315c0 9.473-7.68 17.153-17.153 17.153z" fill="#9ea2b2" data-original="#d1a08f" style="" class=""/><path d="m228.22 27.468v-10.315c0-9.473 7.68-17.153 17.153-17.153h-50.927c-9.473 0-17.153 7.68-17.153 17.153v10.315c0 9.473 7.68 17.153 17.153 17.153h50.927c-9.473 0-17.153-7.68-17.153-17.153z" fill="#797f99" data-original="#c68d7a" style="" class=""/></g></g></svg>
